inDegrees=no
num_controls=7
num_derivatives=13
num_iterations=80
num_multipliers=7
num_parameters=0
num_slacks=7
num_states=26
objective=0.464114
objective_accelerations=0.014568
objective_balance=0.001198
objective_effort=0.008606
objective_height=0.434055
objective_ligament=0.005688
solver_duration=1158.676576
status=Solve_Succeeded
success=true
DataType=double
version=3
OpenSimVersion=4.5
endheader
time	/jointset/ground_pelvis/pelvis_tilt/value	/jointset/ground_pelvis/pelvis_tx/value	/jointset/ground_pelvis/pelvis_ty/value	/jointset/hip_l/hip_flexion_l/value	/jointset/hip_l/hip_adduction_l/value	/jointset/hip_l/hip_rotation_l/value	/jointset/back/lumbar_extension/value	/jointset/patellofemoral_l/patellar_flexion_l/value	/jointset/knee_l/knee_flexion_l/value	/jointset/knee_l/knee_adduction_l/value	/jointset/knee_l/knee_rotation_l/value	/jointset/ankle_l/ankle_angle_l/value	/jointset/subtalar_l/subtalar_angle_l/value	/jointset/ground_pelvis/pelvis_tilt/speed	/jointset/ground_pelvis/pelvis_tx/speed	/jointset/ground_pelvis/pelvis_ty/speed	/jointset/hip_l/hip_flexion_l/speed	/jointset/hip_l/hip_adduction_l/speed	/jointset/hip_l/hip_rotation_l/speed	/jointset/back/lumbar_extension/speed	/jointset/patellofemoral_l/patellar_flexion_l/speed	/jointset/knee_l/knee_flexion_l/speed	/jointset/knee_l/knee_adduction_l/speed	/jointset/knee_l/knee_rotation_l/speed	/jointset/ankle_l/ankle_angle_l/speed	/jointset/subtalar_l/subtalar_angle_l/speed	/forceset/tau_hip_flexion_l	/forceset/tau_hip_adduction_l	/forceset/tau_hip_rotation_l	/forceset/tau_knee_flexion_l	/forceset/tau_ankle_angle_l	/forceset/tau_subtalar_angle_l	/forceset/tau_lumbar_extension	lambda_cid13_p0	lambda_cid13_p1	lambda_cid13_p2	lambda_cid13_p3	lambda_cid13_p4	lambda_cid13_p5	lambda_cid14_p0	/jointset/ground_pelvis/pelvis_tilt/accel	/jointset/ground_pelvis/pelvis_tx/accel	/jointset/ground_pelvis/pelvis_ty/accel	/jointset/hip_l/hip_flexion_l/accel	/jointset/hip_l/hip_adduction_l/accel	/jointset/hip_l/hip_rotation_l/accel	/jointset/back/lumbar_extension/accel	/jointset/patellofemoral_l/patellar_flexion_l/accel	/jointset/knee_l/knee_flexion_l/accel	/jointset/knee_l/knee_adduction_l/accel	/jointset/knee_l/knee_rotation_l/accel	/jointset/ankle_l/ankle_angle_l/accel	/jointset/subtalar_l/subtalar_angle_l/accel	gamma_cid13_p0	gamma_cid13_p1	gamma_cid13_p2	gamma_cid13_p3	gamma_cid13_p4	gamma_cid13_p5	gamma_cid14_p0
0	-0.04430625864331073	0.07103019066243453	0.8961459147133988	0.1955287580552426	-0.3199122655726022	-0.5243220685452261	-0.1379045077516729	0.07015288079085256	0.07015288079084844	-0.174531320416629	-0.156752394697073	-0.06701059314715049	0.006530749336549966	0	0	0	0	0	0	0	0	0	0	0	0	0	0.07589999157425083	-0.1072272993886616	-0.04112369510281633	-0.2663696050902955	0.2924910305473536	-0.02090888619807723	-0.0123691932340424	57.71577372345107	-4.897067201038042	4.867773115745352	-52.88445591427183	-536.4225344779273	-77.30437716016031	-41.02145314178898	0.4877947336200514	0.7587485138737089	-0.1419595314107521	0.6951666582021103	-1.138155618305594	1.306538864802653	-1.629019692745784	4.422720545077839	4.422720545077337	0.05267838438213992	-0.202019819147868	3.161659531145175	0.4864463297315933	-8.851764494576506e-09	4.677062898326587e-08	2.353012940051419e-08	1.881725883830829e-08	3.392629371966383e-08	4.119778642784997e-08	-3.563291856796068e-09
0.01	-0.04427805312953503	0.07106530254258132	0.896139128976064	0.1955602324504959	-0.3199682081841413	-0.5242559543570197	-0.1379862018596755	0.07036853867851034	0.07036853867844775	-0.1745295655848407	-0.1567602400000978	-0.06685846251553569	0.006552844972417517	0.005864345510085195	0.00673200574477595	-0.001354802534564428	0.006364552822523772	-0.01113035563193154	0.01319639997011832	-0.0161971147926526	0.04298738052461368	0.04298738052461802	0.0003826883988301513	-0.001592035321029809	0.03000721887468757	0.004252879298673505	0.06177311547262427	-0.1008837128766661	-0.03674802693755837	-0.2355759257524421	0.2433536058324205	-0.007142188108342062	-0.002339792853206736	42.43046494534235	-8.37888072445449	5.627654013068826	-41.72382676349884	-536.2661402703017	-85.24966955704191	-41.02559090892719	0.6692388213211912	0.5868748249880872	-0.1318820893732136	0.6175488227723727	-1.091753428695664	1.322222263669406	-1.59380135101457	4.215117968290293	4.21511796829061	0.03582935394291091	-0.1412391898080107	2.857416705533137	0.3697615528925001	-1.932982798375971e-08	3.705358046392506e-08	3.664910102963024e-08	1.801753789978576e-08	-1.511602766541252e-08	-5.096812089104215e-09	-3.974697200049243e-09
0.02	-0.04418450728834762	0.0711590241242169	0.896118866918404	0.1956574422197124	-0.3201337099306075	-0.5240586698290236	-0.1382256159112936	0.07100974460380999	0.07100974460380823	-0.1745230308118902	-0.1567846944166396	-0.0664188269671936	0.006612479965863167	0.01306806548493846	0.01172194029775677	-0.002695264064998593	0.01314707478482853	-0.02191182698621312	0.02623406796234634	-0.03154398872485004	0.08510960753471174	0.0851096075347003	0.0009559882500289077	-0.00332182269116033	0.05750098334547273	0.007507871515630422	0.04764623937159743	-0.09454012636468051	-0.03237235877180453	-0.2047822464143859	0.1942161811175849	0.006624509981430189	0.007689607528053409	27.17419466631931	-11.86719832306018	6.390193675199882	-30.73284199585493	-535.7502525595171	-93.12205601788006	-41.03802592931849	0.7556696265738633	0.4103342755144833	-0.1390913305847058	0.7787604861583213	-1.068378762775671	1.274792469224587	-1.458971520654586	4.249689842174732	4.249689842170206	0.0908006748557004	-0.2295702289680565	2.658968650364436	0.2868689133880614	-2.980789147294291e-08	2.733653194458424e-08	4.97680726587463e-08	1.721781696126323e-08	-6.415834905048887e-08	-5.139141060605841e-08	-4.386102543302419e-09
0.03	-0.04401555244301309	0.07129755867262211	0.896085252189364	0.1958232764545418	-0.3204054086441173	-0.52373223588478	-0.1386143547718071	0.07206754654545294	0.07206754654546745	-0.1745101838569663	-0.1568268500755963	-0.06571265396317483	0.006701830212609448	0.0206216086889004	0.01605759256297964	-0.004025960425971776	0.01993308600199489	-0.03238667513438442	0.03898763132858993	-0.04608021478674182	0.1262504257753088	0.126250425775299	0.001584585908155157	-0.00508990848153074	0.08371753186740591	0.01039908836486912	0.04970104491976629	-0.09049280405265193	-0.03312688534290328	-0.2101877764691948	0.2046354072975407	-4.619980309718659e-07	0.006433184518737417	30.24765155087429	-9.628755788555489	6.148282912583722	-32.63552376269271	-536.2396307197491	-87.97680111213523	-41.05854782319722	0.7399987709582743	0.4560776187956182	-0.1298136211309814	0.6155137232170096	-1.030863751429473	1.265869169088496	-1.432412859837496	4.01622544081402	4.016225440817081	0.04457927055401754	-0.1475124515254075	2.600582489873876	0.295775051658871	-3.807539753880982e-08	3.136017124132953e-08	6.3479031752809e-08	2.416810941180997e-08	-8.647369038703178e-08	-6.01316343429549e-08	-6.247748492260979e-09
0.04	-0.0437741017449205	0.0714816291270329	0.8960383795302581	0.1960543692582808	-0.3207806210212254	-0.5232802201271192	-0.1391447488351171	0.07353074619468605	0.07353074619468362	-0.1744919129335747	-0.1568861035319125	-0.06474479856658369	0.006821198024041393	0.02756723603894588	0.02082912149887368	-0.005346850078156843	0.0261987885680125	-0.04261455970622061	0.05135043064539931	-0.05987502928383843	0.1661891490483746	0.1661891490483876	0.002040781936789035	-0.006741382170063482	0.1098374618599766	0.01351138445278556	0.05175585046794512	-0.0864454817406252	-0.0338814119142224	-0.2155933065239869	0.2150546334774889	-0.006625433977495827	0.005176761509442978	33.348742290205	-7.392789445250546	5.904068688591152	-34.68952663553365	-536.3805619495947	-82.75349140109084	-41.08668637729434	0.6340864557907594	0.4975096096485304	-0.1371299888270888	0.6746987559285874	-1.018986047508715	1.196639659337733	-1.310689207695396	4.009270848668508	4.009270848668199	0.05632034895707705	-0.2062478086005719	2.639644944491704	0.3310847611234127	-4.62973251011032e-08	3.566712368892195e-08	7.720219677398402e-08	3.127819595285299e-08	-1.082379599699967e-07	-6.809754107407701e-08	-8.139296309378414e-09
0.05	-0.0434655606018814	0.07171468154463946	0.8959782844385556	0.1963462282367306	-0.3212568721573601	-0.5227064633535046	-0.1398096514645067	0.07538775407006805	0.07538775407006031	-0.1744697769117443	-0.1569615465948258	-0.06351711366531781	0.006972315008728722	0.03411605918061384	0.02576312916846451	-0.006674827289063262	0.03213859457572696	-0.05258888690956044	0.06335090116545843	-0.07301810201336524	0.2050356480271348	0.2050356480271407	0.002376409606216557	-0.00833816698838696	0.1355876883692244	0.0167024637392536	0.05035799538742804	-0.08260495680522877	-0.03347967138713025	-0.2132085042970095	0.2115434820861806	-0.008015285895675725	0.006292946439270207	32.15728582172574	-6.681404291876845	5.905841283046169	-33.61434324797951	-536.5382271106779	-81.11219150370027	-41.12191529061587	0.6615359670172675	0.4886177301304164	-0.1310522647105544	0.5484534497190097	-0.9796541474982948	1.19423767082513	-1.303007118053092	3.795824365674981	3.79582436567415	0.02069910893152391	-0.1350251453957931	2.525932893154077	0.3116732807237571	-5.226190288923957e-08	3.934207642814982e-08	8.54383795574196e-08	3.539651236534793e-08	-1.278413350864688e-07	-7.77614775685987e-08	-8.830093301280224e-09
